<svg width="31" height="31" viewBox="0 0 31 31" fill="none" xmlns="http://www.w3.org/2000/svg">
<path fill-rule="evenodd" clip-rule="evenodd" d="M0 4.73404C0 2.1195 2.1195 0 4.73404 0H25.5638C28.1784 0 30.2979 2.1195 30.2979 4.73404V25.5638C30.2979 28.1784 28.1784 30.2979 25.5638 30.2979H4.73404C2.1195 30.2979 0 28.1784 0 25.5638V4.73404ZM7.57447 15.3076C7.57447 11.1381 10.9563 7.75626 15.1258 7.75626C19.2952 7.75626 22.6771 11.1381 22.7234 15.3076C22.7234 18.6431 20.5923 21.4691 17.5811 22.4882C17.2105 22.5346 17.0715 22.3029 17.0715 22.1176V20.0329C17.0715 19.338 16.8399 18.8747 16.5619 18.6431C18.2297 18.4578 19.9901 17.8555 19.9901 14.9369C19.9901 14.1031 19.6658 13.4082 19.2026 12.8986C19.2062 12.884 19.2113 12.8657 19.2174 12.8439C19.2883 12.5881 19.4941 11.8456 19.1099 10.9065C19.1099 10.9065 18.4613 10.7212 17.0252 11.6941C16.4229 11.5551 15.7743 11.4624 15.1258 11.4624C14.4772 11.4624 13.8286 11.5087 13.2264 11.6941C11.7902 10.7212 11.1416 10.9065 11.1416 10.9065C10.7322 11.9074 10.9929 12.6848 11.0463 12.8441L11.049 12.8522C10.5394 13.4082 10.2614 14.0567 10.2614 14.8906C10.2614 17.8092 12.0219 18.4578 13.6897 18.6431C13.5043 18.8284 13.2727 19.1527 13.2264 19.6623C12.8094 19.8476 11.7439 20.1719 11.049 19.0137C11.049 19.0137 10.6321 18.2725 9.89081 18.2262C9.89081 18.2262 9.14961 18.2262 9.84452 18.6894C9.84452 18.6894 10.3541 18.9211 10.6784 19.8013C10.6784 19.8013 11.1416 21.2837 13.2264 20.8205V22.1176C13.2264 22.3029 13.0874 22.5346 12.7168 22.4882C9.75183 21.4691 7.57447 18.6431 7.57447 15.3076Z" fill="#ABABAB"/>
</svg>
