<svg width="32" height="31" viewBox="0 0 32 31" fill="none" xmlns="http://www.w3.org/2000/svg">
<path d="M16.0958 17.8C14.6756 17.8 13.4447 16.6638 13.4447 15.1489C13.4447 13.7287 14.5809 12.4979 16.0958 12.4979C17.516 12.4979 18.7468 13.634 18.7468 15.1489C18.7468 16.5691 17.516 17.8 16.0958 17.8Z" fill="#ABABAB"/>
<path fill-rule="evenodd" clip-rule="evenodd" d="M19.3149 8.71064H12.8766C12.1192 8.80532 11.7405 8.9 11.4564 8.99468C11.0777 9.08936 10.7936 9.27872 10.5096 9.56276C10.2848 9.78752 10.1787 10.0123 10.0503 10.284C10.0165 10.3555 9.981 10.4306 9.94152 10.5096C9.92687 10.5535 9.90996 10.5997 9.89183 10.6492C9.79278 10.9199 9.65748 11.2895 9.65748 11.9298V18.3681C9.75216 19.1255 9.84684 19.5043 9.94152 19.7883C10.0362 20.167 10.2256 20.4511 10.5096 20.7351C10.7344 20.9599 10.9591 21.0661 11.2308 21.1944C11.3025 21.2283 11.3774 21.2637 11.4564 21.3032C11.5004 21.3178 11.5466 21.3347 11.5961 21.3529C11.8667 21.4519 12.2364 21.5872 12.8766 21.5872H19.3149C20.0724 21.4925 20.4511 21.3979 20.7351 21.3032C21.1139 21.2085 21.3979 21.0191 21.6819 20.7351C21.9067 20.5103 22.0129 20.2856 22.1413 20.0139C22.1751 19.9423 22.2105 19.8673 22.25 19.7883C22.2647 19.7444 22.2816 19.6981 22.2997 19.6486C22.3988 19.378 22.5341 19.0084 22.5341 18.3681V11.9298C22.4394 11.1723 22.3447 10.7936 22.25 10.5096C22.1553 10.1308 21.966 9.84681 21.6819 9.56276C21.4572 9.338 21.2324 9.23181 20.9608 9.10345C20.8892 9.06965 20.814 9.03413 20.7351 8.99468C20.6912 8.98003 20.645 8.96312 20.5955 8.94499C20.3249 8.84594 19.9552 8.71064 19.3149 8.71064ZM16.0958 11.0777C13.8234 11.0777 12.0245 12.8766 12.0245 15.1489C12.0245 17.4213 13.8234 19.2202 16.0958 19.2202C18.3681 19.2202 20.1671 17.4213 20.1671 15.1489C20.1671 12.8766 18.3681 11.0777 16.0958 11.0777ZM21.2085 10.983C21.2085 11.5059 20.7846 11.9298 20.2617 11.9298C19.7388 11.9298 19.3149 11.5059 19.3149 10.983C19.3149 10.4601 19.7388 10.0362 20.2617 10.0362C20.7846 10.0362 21.2085 10.4601 21.2085 10.983Z" fill="#ABABAB"/>
<path fill-rule="evenodd" clip-rule="evenodd" d="M0.946838 4.73404C0.946838 2.1195 3.06634 0 5.68088 0H26.5107C29.1252 0 31.2447 2.1195 31.2447 4.73404V25.5638C31.2447 28.1784 29.1252 30.2979 26.5107 30.2979H5.68088C3.06634 30.2979 0.946838 28.1784 0.946838 25.5638V4.73404ZM12.8766 7.29042H19.3149C20.1671 7.3851 20.7351 7.47978 21.2085 7.66915C21.7766 7.95319 22.1553 8.14255 22.6288 8.61596C23.1022 9.08936 23.3862 9.56276 23.5756 10.0362C23.7649 10.5096 23.9543 11.0777 23.9543 11.9298V18.3681C23.8596 19.2202 23.7649 19.7883 23.5756 20.2617C23.2915 20.8298 23.1022 21.2085 22.6288 21.6819C22.1553 22.1553 21.6819 22.4394 21.2085 22.6287C20.7351 22.8181 20.1671 23.0074 19.3149 23.0074H12.8766C12.0245 22.9128 11.4564 22.8181 10.983 22.6287C10.4149 22.3447 10.0362 22.1553 9.5628 21.6819C9.08939 21.2085 8.80535 20.7351 8.61599 20.2617C8.42663 19.7883 8.23726 19.2202 8.23726 18.3681V11.9298C8.33194 11.0777 8.42663 10.5096 8.61599 10.0362C8.90003 9.46808 9.08939 9.08936 9.5628 8.61596C10.0362 8.14255 10.5096 7.85851 10.983 7.66915C11.4564 7.47978 12.0245 7.29042 12.8766 7.29042Z" fill="#ABABAB"/>
</svg>
