<svg width="31" height="31" viewBox="0 0 31 31" fill="none" xmlns="http://www.w3.org/2000/svg">
<path fill-rule="evenodd" clip-rule="evenodd" d="M0 4.73404C0 2.1195 2.1195 0 4.73404 0H25.5638C28.1784 0 30.2979 2.1195 30.2979 4.73404V25.5638C30.2979 28.1784 28.1784 30.2979 25.5638 30.2979H4.73404C2.1195 30.2979 0 28.1784 0 25.5638V4.73404ZM7.76383 12.5926V22.7234H10.983V12.5926H7.76383ZM7.57447 9.37341C7.57447 10.4149 8.33192 11.1723 9.37341 11.1723C10.4149 11.1723 11.1723 10.4149 11.1723 9.37341C11.1723 8.33192 10.4149 7.57447 9.37341 7.57447C8.4266 7.57447 7.57447 8.33192 7.57447 9.37341ZM19.5043 22.7234H22.534V16.4745C22.534 13.35 20.6404 12.3085 18.8415 12.3085C17.2319 12.3085 16.0957 13.35 15.8117 14.0128V12.5926H12.7819V22.7234H16.0011V17.3266C16.0011 15.9064 16.9479 15.1489 17.8947 15.1489C18.8415 15.1489 19.5043 15.6223 19.5043 17.2319V22.7234Z" fill="#ABABAB"/>
</svg>
