<svg width="31" height="31" viewBox="0 0 31 31" fill="none" xmlns="http://www.w3.org/2000/svg">
<path fill-rule="evenodd" clip-rule="evenodd" d="M0 4.73404C0 2.1195 2.1195 0 4.73404 0H25.5638C28.1784 0 30.2979 2.1195 30.2979 4.73404V25.5638C30.2979 28.1784 28.1784 30.2979 25.5638 30.2979H4.73404C2.1195 30.2979 0 28.1784 0 25.5638V4.73404ZM7.57447 15.1489C7.57447 10.983 10.983 7.57447 15.1489 7.57447C19.3149 7.57447 22.7234 10.983 22.6287 14.7702C22.6287 18.9362 19.2202 22.3447 15.0542 22.3447C14.2968 22.3447 13.5394 22.25 12.8766 22.0606C13.1606 21.5872 13.4447 21.0191 13.634 20.4511C13.7287 20.0723 14.2021 18.3681 14.2021 18.3681C14.4862 18.8415 15.2436 19.3149 16.0957 19.3149C18.5574 19.3149 20.167 17.0426 20.167 14.1074C20.167 11.8351 18.2734 9.75213 15.3383 9.75213C11.7404 9.75213 9.94149 12.3085 9.94149 14.4862C9.94149 15.8117 10.4149 16.9479 11.4564 17.4213C11.6458 17.516 11.7404 17.4213 11.8351 17.2319C11.9298 17.1372 12.0245 16.7585 12.0245 16.6638C12.0914 16.5299 12.0637 16.4907 12.0082 16.4123C11.9853 16.3798 11.9575 16.3406 11.9298 16.2851C11.6458 15.9064 11.4564 15.433 11.4564 14.7702C11.4564 12.8766 12.8766 11.1723 15.1489 11.1723C17.1372 11.1723 18.2734 12.4032 18.2734 14.1074C18.2734 16.3798 17.3266 18.1787 15.9064 18.1787C15.0543 18.1787 14.4862 17.516 14.6755 16.7585C14.7546 16.3633 14.8831 15.9516 15.0061 15.5578C15.1776 15.0082 15.3383 14.4936 15.3383 14.1074C15.3383 13.4447 14.9596 12.9713 14.2968 12.9713C13.5394 12.9713 12.8766 13.8234 12.8766 14.9596C12.8766 15.717 13.1606 16.1904 13.1606 16.1904C13.1606 16.1904 12.4032 19.6936 12.2138 20.3564C12.1192 20.9244 12.1192 21.4925 12.1192 22.0605C9.46809 20.9243 7.57447 18.2734 7.57447 15.1489Z" fill="#ABABAB"/>
</svg>
